<?xml version="1.0" encoding="UTF-8"?>
<!DOCTYPE svg PUBLIC "-//W3C//DTD SVG 1.1//EN" "http://www.w3.org/Graphics/SVG/1.1/DTD/svg11.dtd">
<!-- Creator: CorelDRAW X7 -->
<svg xmlns="http://www.w3.org/2000/svg" xml:space="preserve" width="1441px" height="1028px" version="1.1" style="shape-rendering:geometricPrecision; text-rendering:geometricPrecision; image-rendering:optimizeQuality; fill-rule:evenodd; clip-rule:evenodd"
viewBox="0 0 1441 1028"
 xmlns:xlink="http://www.w3.org/1999/xlink">
 <defs>
  <style type="text/css">
   <![CDATA[
    .str0 {stroke:#212261;stroke-width:3.12414}
    .fil57 {fill:none}
    .fil20 {fill:#04851A}
    .fil40 {fill:#0C160C}
    .fil41 {fill:#142F88}
    .fil21 {fill:#1582FA}
    .fil16 {fill:#1B236A}
    .fil36 {fill:#1E2161}
    .fil5 {fill:#202162}
    .fil17 {fill:#212261}
    .fil28 {fill:#222265}
    .fil34 {fill:#252978}
    .fil29 {fill:#2F344A}
    .fil32 {fill:#2F362F}
    .fil47 {fill:#2F366F}
    .fil9 {fill:#3583E5}
    .fil43 {fill:#39329B}
    .fil19 {fill:#444485}
    .fil55 {fill:#4B3818}
    .fil54 {fill:#51421A}
    .fil38 {fill:#515253}
    .fil52 {fill:#57A7D1}
    .fil26 {fill:#57CF6D}
    .fil7 {fill:#595BD4}
    .fil4 {fill:#5D3A14}
    .fil53 {fill:#626857}
    .fil33 {fill:#63A5F3}
    .fil2 {fill:#63A6FC}
    .fil44 {fill:#63A9F4}
    .fil15 {fill:#64AAFA}
    .fil46 {fill:#68A6EA}
    .fil18 {fill:#6A6B6A}
    .fil50 {fill:#6A9DF5}
    .fil45 {fill:#6AA7F8}
    .fil48 {fill:#72AAD6}
    .fil12 {fill:#78B8FE}
    .fil51 {fill:#9E5917}
    .fil0 {fill:#B1E4B9}
    .fil27 {fill:#B4742F}
    .fil24 {fill:#B5660E}
    .fil39 {fill:#C67B34}
    .fil49 {fill:#C87926}
    .fil23 {fill:#CBEBD4}
    .fil8 {fill:#CC781E}
    .fil37 {fill:#CCEEF2}
    .fil31 {fill:#CDD0D0}
    .fil30 {fill:#D4D4D9}
    .fil35 {fill:#DAF7F9}
    .fil10 {fill:#DF7F18}
    .fil3 {fill:#DFF8E2}
    .fil22 {fill:#E79439}
    .fil56 {fill:#EEE6B2}
    .fil1 {fill:#F1922D}
    .fil11 {fill:#F6D6A9}
    .fil25 {fill:#FACEA7}
    .fil14 {fill:#FB8D11}
    .fil13 {fill:#FBD3A5}
    .fil42 {fill:#FDFCF5}
    .fil6 {fill:#FDFDFA}
   ]]>
  </style>
 </defs>
 <g id="Layer_x0020_1">
  <metadata id="CorelCorpID_0Corel-Layer"/>
  <path class="fil0" d="M829 692l-17 -3c-13,1 -27,1 -43,1l0 1 -1 -27 143 8c7,4 9,3 20,2l1 -35 137 1c-20,49 36,90 76,94l-9 -27 0 1c11,8 8,12 15,22 13,-20 18,-57 14,-84 3,-7 -2,-3 7,-4l18 17c4,-23 -3,-92 -6,-118 5,8 2,6 5,19 1,1 1,2 1,3l6 94c13,-8 35,-41 41,-60 11,-32 -2,-61 -34,-61 -4,-5 -3,-4 -12,-4 0,0 -9,0 -9,0 -13,2 -4,1 -8,3 -28,3 -25,17 -38,30l-11 0 -3 1c10,-17 24,-46 4,-62 5,-14 -3,-2 7,-6 4,-2 6,-2 11,-2 10,0 12,2 21,-1 21,-14 14,-31 19,-54l26 -119 -2 13c59,53 134,115 162,219 14,54 17,109 -8,158 -18,34 -57,77 -99,90l-1 -46 -143 1 -1 88c-15,9 -22,3 -36,12 -71,27 -366,52 -460,50l70 -25 -1 -15c28,0 26,1 45,-9l145 -21 1 -15c11,-2 27,-4 36,-10l-39 8c-16,-9 -30,-28 -61,-28 -17,-6 -61,-13 -80,-12 -22,2 -52,20 -70,13l-8 -22c-12,0 -66,24 -86,30 -35,11 -68,15 -107,11l-2 -6c8,-10 25,-25 28,-40l36 -50 47 -65 135 10 -1 24c-25,1 -43,-3 -70,0 -23,2 -45,4 -68,6l-14 4c1,13 5,11 21,12l90 5c38,2 81,4 119,8l2 0c16,-3 37,-4 54,-6 25,-2 42,-2 51,-7 -2,-14 4,-7 -9,-10l-57 -5 0 0zm416 50c-1,0 -2,5 -11,6 -18,2 -7,1 -11,-6 -9,1 -6,0 -9,-13 -21,-85 17,-123 65,-92l3 2c5,2 11,-1 22,15 27,39 -24,80 -59,88z"/>
  <path class="fil1" d="M369 944c-46,-16 -87,-24 -123,-57 -25,-23 -66,-87 -37,-130 -3,54 16,94 46,117 23,17 75,47 113,50l1 20zm-230 -198l-25 40c-10,21 -51,72 -54,93 44,28 255,97 304,70 9,-5 2,4 5,-5l7 -17c35,10 91,14 130,7 35,-6 84,-24 116,-27l70 -25 -1 -15 -23 -74 -8 -22c-12,0 -66,24 -86,30 -35,11 -68,15 -107,11l-2 -6c-17,7 -46,-17 -61,-28l-44 -31c-9,-8 -9,0 -5,-16 -16,-17 -11,-68 -45,-78 0,25 8,45 -4,65 -30,50 -35,21 -107,38 -24,6 -41,0 -60,-10z"/>
  <path class="fil2" d="M631 385c56,-4 52,46 27,54 -20,7 -34,-4 -39,-17 -8,-21 2,-25 12,-37zm171 -274c-7,6 -26,12 -36,17 -11,7 -22,15 -31,22l-58 51c-11,18 -25,32 -36,53 -7,12 -16,46 -31,52 8,3 3,-2 7,4l-7 15c-3,25 -11,51 -15,80 -3,27 -4,59 -4,86l18 0c8,-9 14,-18 28,-18 20,2 18,13 29,19l51 1 1 -52 -38 -6c8,-9 -15,-12 37,-3l-19 -6 11 -5c7,-3 1,2 8,-1l3 -72 -20 -6c6,-6 8,-6 20,-4l-17 -6c4,-4 6,-5 17,-5l99 12c-4,5 -2,7 -23,5l-9 2c-13,12 -35,0 -64,2l0 66 45 7c-7,5 -1,3 -11,5l43 10c-17,14 -58,-7 -77,-4 21,8 54,3 68,16 -8,6 -7,3 -32,-1 -12,-2 -23,-3 -36,-7l1 53 99 0c1,-64 11,-135 25,-193l6 -21c6,-41 56,-113 87,-147l43 -37c-58,-24 -130,-1 -182,16zm-159 193c21,-4 35,-2 43,15 8,17 1,32 -13,38 -16,7 -32,-3 -38,-13 -12,-18 -2,-29 8,-40zm138 -34c-3,-6 -2,-1 -6,-11l24 3c-3,8 1,1 -6,6 -15,11 -4,12 -17,24 -3,-4 -8,7 -2,-11 1,0 6,-9 7,-11zm-79 14c5,-16 8,-10 6,-28l0 -4c8,0 11,1 17,2 10,1 2,1 9,1 2,0 1,-1 7,-1 11,2 5,4 15,4 8,0 4,-5 16,2 -5,12 1,2 -12,6 0,1 1,2 2,2 21,28 -27,19 -42,18 2,-9 4,-11 6,-17l0 -9c-11,3 -3,-7 -11,11 -7,14 0,8 -13,13z"/>
  <path class="fil0" d="M317 483c24,7 38,15 43,40l-12 8 -1 20 3 8c13,7 3,-1 6,9 -4,7 -3,5 4,3 11,-5 2,3 -2,5 -6,15 -13,34 -22,42l-28 14 2 21c34,10 29,61 45,78l30 -15c16,-22 34,-35 55,-67 16,-25 31,-52 42,-77l14 -3c4,-21 16,-28 30,-37l0 -123c-29,8 -49,14 -81,3 -10,-4 -21,-10 -29,-17 -12,-9 -12,-15 -23,-22 2,13 -8,18 -17,29 -8,9 -13,15 -21,25 -8,10 -33,41 -38,56z"/>
  <path class="fil3" d="M848 300c-14,58 -24,129 -25,193l1 107 -16 -6 -82 -19 -12 -4c-16,0 -37,-7 -54,-11 -12,-3 -46,-4 -47,-19 -2,2 -19,29 -21,32 4,10 17,9 -9,42 -7,10 -6,1 -4,13l3 4 138 10 16 2 165 10 0 -155 0 -6 0 -199 -53 6z"/>
  <path class="fil4" d="M222 533c-4,12 -10,16 -12,31 -6,31 1,44 -45,76 -29,19 -62,62 -26,106 19,10 36,16 60,10 72,-17 77,12 107,-38 12,-20 4,-40 4,-65l-2 -21c0,-13 2,-16 3,-27 3,-19 2,-5 -4,-17 -11,-23 -2,-24 17,-26l4 -21 13 -1c3,-19 -12,11 -1,-4 4,-5 -1,-2 8,-5l12 -8c-5,-25 -19,-33 -43,-40 -90,-5 -76,41 -95,50z"/>
  <path class="fil5" d="M1030 134l4 10 4 17 11 79 -1 36 -2 14c12,-8 5,-8 21,-12l0 31c-24,14 -7,16 -29,19l1 6c14,3 56,-16 57,20 16,14 -1,57 -21,61 2,4 -3,7 22,7 23,0 50,-3 71,2 9,7 9,13 16,17l26 -119c-3,-58 17,-138 -39,-204 -46,-55 -149,-56 -180,-24 27,22 17,11 39,40z"/>
  <path class="fil0" d="M854 279l66 -6 11 0 0 150 82 0c-2,-14 3,-2 -7,-12 -4,-4 -8,-5 -12,-9 -24,-41 -6,-86 45,-68l-1 -6c-7,-6 -4,-4 -5,-8 -4,-1 -9,-4 -12,-5 -10,-7 -4,-2 -9,-9 14,3 12,3 21,12l13 -28 2 -14 1 -36c-29,-13 -90,-36 -127,-42l-25 -6c-14,11 -41,72 -43,87z"/>
  <path class="fil6" d="M483 261l6 58 -10 0c-7,-9 2,-51 4,-58zm-87 44c-1,26 4,45 20,61 16,15 22,27 51,31 62,10 97,-42 97,-67 -3,-29 4,-35 -18,-59 -12,-14 -31,-25 -53,-28 -23,-2 -48,5 -62,16 -9,7 -15,12 -20,21 -1,3 -4,8 -7,12 -6,11 -4,16 -6,11 0,-1 -1,1 -2,2z"/>
  <path class="fil7" d="M1262 839l1 -37 -1 -46 -143 1c-2,115 -5,101 94,102 35,0 34,-1 49,-20z"/>
  <path class="fil8" d="M396 305c5,-48 48,-85 104,-75 25,4 43,20 53,34 8,11 25,52 11,66 0,25 -35,77 -97,67 -29,-4 -35,-16 -51,-31 -16,-16 -21,-35 -20,-61zm76 -96l-50 13c-3,7 -4,6 -9,12 -15,19 -30,31 -35,62 -7,39 6,51 15,77 11,7 11,13 23,22 8,7 19,13 29,17 32,11 52,5 81,-3l2 1 13 -7c4,-8 -2,-4 6,-4 10,-14 17,-17 26,-32 9,-16 10,-27 15,-40l2 -19c-5,-9 -6,-23 -11,-36 -6,-11 -12,-19 -17,-27 -9,-9 -18,-17 -32,-24 -9,-5 -32,-6 -38,-14l-20 2z"/>
  <path class="fil0" d="M114 786l25 -40c-36,-44 -3,-87 26,-106 46,-32 39,-45 45,-76 2,-15 8,-19 12,-31 -22,15 -45,25 -67,41 -127,93 -45,190 -41,212z"/>
  <path class="fil9" d="M1223 742c3,3 2,0 -4,3 9,-39 10,-27 19,-32 -3,18 -6,13 -9,32l16 -3c35,-8 86,-49 59,-88 -11,-16 -17,-13 -22,-15l-3 -2c-48,-31 -86,7 -65,92 3,13 0,14 9,13z"/>
  <path class="fil3" d="M547 399c-4,27 5,116 -3,132 11,6 10,2 22,4 14,3 3,4 20,6 4,-7 2,-2 8,-10l-3 -40c0,-27 1,-59 4,-86 4,-29 12,-55 15,-80l-22 2c-5,13 -6,24 -15,40 -9,15 -16,18 -26,32z"/>
  <path class="fil10" d="M355 731c-4,16 -4,8 5,16l44 31c15,11 44,35 61,28 8,-10 25,-25 28,-40l0 0 0 0 36 -50 47 -65 6 -19 -3 -4c-21,-7 -61,-43 -78,-45l0 0 -19 -11c-11,25 -26,52 -42,77 -21,32 -39,45 -55,67l-30 15z"/>
  <path class="fil6" d="M931 445l0 37 141 -1 12 -21 19 -1 -7 14c-2,11 0,7 1,9l64 -1 5 -18c-44,-13 -60,-17 -110,-20 -41,-2 -84,0 -125,2z"/>
  <path class="fil11" d="M668 793l23 74c28,0 26,1 45,-9 21,-12 16,-30 33,-39 17,-11 42,-8 61,-10 -5,-18 -1,-5 -12,-17 -17,-6 -61,-13 -80,-12 -22,2 -52,20 -70,13z"/>
  <path class="fil12" d="M666 492l0 7c9,-1 22,0 32,-1 17,0 20,-3 20,9 -8,0 -17,-6 -25,-3 0,0 -1,1 -1,1 0,0 -1,1 -1,1l-12 7c-1,-1 -2,1 -3,1l43 9c0,11 4,45 -5,48l12 4 -2 -50 52 12c17,3 13,0 16,-4l-23 -7 -16 -11c-20,-7 -27,4 -30,-16l97 -1c0,42 -7,46 2,93 -7,5 10,7 -14,3l16 6 -1 -107 -99 0 -1 -53c13,4 24,5 36,7 25,4 24,7 32,1 -14,-13 -47,-8 -68,-16 19,-3 60,18 77,4l-43 -10c10,-2 4,0 11,-5l-45 -7 0 -66c29,-2 51,10 64,-2l9 -2c21,2 19,0 23,-5l-99 -12c-11,0 -13,1 -17,5l17 6c-12,-2 -14,-2 -20,4l20 6 -3 72c-7,3 -1,-2 -8,1l-11 5 19 6c-52,-9 -29,-6 -37,3l38 6 -1 52 -51 -1z"/>
  <path class="fil2" d="M726 575l82 19c24,4 7,2 14,-3 -9,-47 -2,-51 -2,-93l-97 1c3,20 10,9 30,16l16 11 23 7c-3,4 1,7 -16,4l-52 -12 2 50z"/>
  <path class="fil13" d="M594 531c-6,8 -4,3 -8,10 -17,-2 -6,-3 -20,-6 -12,-2 -11,2 -22,-4l-18 1c-14,9 -26,16 -30,37l-14 3 19 11c17,2 57,38 78,45 -2,-12 -3,-3 4,-13 26,-33 13,-32 9,-42 2,-3 19,-30 21,-32l5 -16 -24 6z"/>
  <path class="fil6" d="M1085 622c13,2 12,5 17,17 4,9 8,16 12,24 6,13 14,32 22,44l0 1 -41 -89c29,-7 34,-9 58,4l-13 -29c-73,-10 -127,-7 -200,-6 5,18 3,17 0,34l145 0z"/>
  <path class="fil6" d="M931 553c34,-2 68,-1 101,-1 17,0 33,0 50,0 25,1 37,7 38,-16 -47,-24 -130,-22 -189,-19l0 36z"/>
  <path class="fil8" d="M994 402c25,-6 39,-2 63,-14 6,-3 16,-9 23,-14 6,-7 9,-15 16,-20 -1,-36 -43,-17 -57,-20 -51,-18 -69,27 -45,68z"/>
  <path class="fil14" d="M932 509c34,2 72,1 106,1 18,0 36,0 53,0 29,-1 29,-3 29,26 -1,23 -13,17 -38,16 -17,0 -33,0 -50,0 -33,0 -67,-1 -101,1l-1 13 192 0c10,-17 24,-46 4,-62 -22,-12 -72,-4 -97,-4 -29,1 -74,-5 -98,1l1 8z"/>
  <path class="fil15" d="M594 531l24 -6 -5 16c1,15 35,16 47,19 17,4 38,11 54,11 9,-3 5,-37 5,-48l-43 -9c1,0 2,-2 3,-1l12 -7c0,0 1,-1 1,-1 0,0 1,-1 1,-1 8,-3 17,3 25,3 0,-12 -3,-9 -20,-9 -10,1 -23,0 -32,1 4,40 -56,47 -57,-8l-18 0 3 40z"/>
  <path class="fil0" d="M562 245c5,8 11,16 17,27 5,13 6,27 11,36l20 -2c15,-6 24,-40 31,-52 11,-21 25,-35 36,-53 -19,3 -43,12 -60,19 -15,7 -41,22 -55,25z"/>
  <polygon class="fil16" points="854,279 848,300 901,294 901,493 920,495 920,273 "/>
  <path class="fil17" d="M736 858l145 -21 1 -15c11,-2 27,-4 36,-10l-39 8c-16,-9 -30,-28 -61,-28 11,12 7,-1 12,17 -19,2 -44,-1 -61,10 -17,9 -12,27 -33,39z"/>
  <path class="fil18" d="M711 661l-1 24c-25,1 -43,-3 -70,0 -23,2 -45,4 -68,6 7,4 0,1 10,3 3,1 11,1 14,1 9,1 17,1 26,2l166 10 0 13 2 0 0 -12c18,0 31,-3 48,-4l41 -4c5,-1 4,-1 7,-3l-57 -5 0 0 -17 -3c-3,0 -5,0 -7,1 -15,0 -20,0 -36,0 -5,6 -6,7 -11,6l-34 -1 -1 -34 -2 -19 15 2 -16 -2c1,15 5,20 -9,19z"/>
  <path class="fil19" d="M901 493l0 6 19 -2 -1 173 -8 2c7,4 9,3 20,2l1 -35 0 -14 -1 -45 -1 -14 1 -13 0 -36 1 -8 -1 -8 0 -19 0 -37 0 -10 0 -12 0 -150 -11 0 0 222 -19 -2z"/>
  <path class="fil20" d="M1136 708c11,8 8,12 15,22 13,-20 18,-57 14,-84 -1,-12 -7,-17 -12,-23 -24,-13 -29,-11 -58,-4l41 89z"/>
  <path class="fil21" d="M1136 565l-1 15c5,7 3,4 5,14l13 29c5,6 11,11 12,23 3,-7 -2,-3 7,-4l18 17c4,-23 -3,-92 -6,-118 -8,-8 0,-2 -10,-6 -28,3 -25,17 -38,30z"/>
  <path class="fil20" d="M1082 626c-4,6 -7,9 -13,14 -20,49 36,90 76,94l-9 -27c-8,-12 -16,-31 -22,-44 -4,-8 -8,-15 -12,-24 -5,-12 -4,-15 -17,-17 0,5 2,3 -3,4z"/>
  <path class="fil21" d="M1190 563l6 94c13,-8 35,-41 41,-60 11,-32 -2,-61 -34,-61l-13 2 0 25z"/>
  <path class="fil10" d="M369 944l-1 -20c-38,-3 -90,-33 -113,-50 -30,-23 -49,-63 -46,-117 -29,43 12,107 37,130 36,33 77,41 123,57z"/>
  <path class="fil22" d="M931 501c24,-6 69,0 98,-1 25,0 75,-8 97,4 5,-14 -3,-2 7,-6 4,-2 6,-2 11,-2 10,0 12,2 21,-1 -7,1 -37,2 -42,0 -11,-4 -4,-6 -14,-11 -5,-2 -6,-1 -11,-2l-8 0 -14 0 -4 -1 -141 1 0 19z"/>
  <path class="fil23" d="M1082 857l14 -1c8,24 170,27 187,1 -10,-12 -15,-4 -21,-18 -15,19 -14,20 -49,20 -99,-1 -96,13 -94,-102l-1 88c-15,9 -22,3 -36,12z"/>
  <path class="fil24" d="M994 402c4,4 8,5 12,9 10,10 5,-2 7,12l47 1 2 -8 13 -1c20,-4 37,-47 21,-61 -7,5 -10,13 -16,20 -7,5 -17,11 -23,14 -24,12 -38,8 -63,14z"/>
  <path class="fil25" d="M308 632l28 -14c9,-8 16,-27 22,-42 0,0 -5,3 2,-5 -7,2 -8,4 -4,-3l-6 -9 -11 -2c4,-11 -2,-6 8,-6l1 -20c-9,3 -4,0 -8,5 -11,15 4,-15 1,4l-13 1 -4 21c-19,2 -28,3 -17,26 6,12 7,-2 4,17 -1,11 -3,14 -3,27z"/>
  <path class="fil26" d="M788 720l0 -13 -166 -10c-9,-1 -17,-1 -26,-2 -3,0 -11,0 -14,-1 -10,-2 -3,1 -10,-3l-14 4c1,13 5,11 21,12l90 5c38,2 81,4 119,8z"/>
  <path class="fil27" d="M1060 424l55 2 -1 10c8,0 36,-1 42,1 13,3 10,12 10,26l-5 18 -64 1c-1,-2 -3,2 -1,-9 -6,1 -3,-2 -9,3l3 6 8 0c5,1 6,0 11,2 10,5 3,7 14,11 5,2 35,1 42,0 21,-14 14,-31 19,-54 -7,-4 -7,-10 -16,-17 -21,-5 -48,-2 -71,-2 -25,0 -20,-3 -22,-7l-13 1 -2 8z"/>
  <path class="fil28" d="M576 651l135 10c4,0 6,0 7,-1l15 1 28 3c6,-1 3,2 4,8 1,3 0,7 1,10 1,9 2,7 3,9l-1 -27 143 8 8 -2 1 -173 -19 2 0 155 -165 -10 -3 -1 0 0 -13 -1 0 0 -11 -1 0 0 0 0 -127 -9 -6 19z"/>
  <polygon class="fil29" points="931,580 1124,580 1125,565 1122,566 930,566 "/>
  <path class="fil30" d="M396 305c1,-1 2,-3 2,-2 2,5 0,0 6,-11 3,-4 6,-9 7,-12 5,-9 11,-14 20,-21 14,-11 39,-18 62,-16 22,3 41,14 53,28 22,24 15,30 18,59 14,-14 -3,-55 -11,-66 -10,-14 -28,-30 -53,-34 -56,-10 -99,27 -104,75z"/>
  <path class="fil31" d="M932 625l150 1c5,-1 3,1 3,-4l-145 0c3,-17 5,-16 0,-34 73,-1 127,-4 200,6 -2,-10 0,-7 -5,-14l-11 0 -193 0 1 45z"/>
  <path class="fil31" d="M931 445c41,-2 84,-4 125,-2 50,3 66,7 110,20 0,-14 3,-23 -10,-26 -6,-2 -34,-1 -42,-1l-183 -1 0 10z"/>
  <polygon class="fil1" points="931,435 1114,436 1115,426 1060,424 1013,423 931,423 "/>
  <path class="fil32" d="M932 639l137 1c6,-5 9,-8 13,-14l-150 -1 0 14z"/>
  <path class="fil31" d="M931 517c59,-3 142,-5 189,19 0,-29 0,-27 -29,-26 -17,0 -35,0 -53,0 -34,0 -72,1 -106,-1l-1 8z"/>
  <path class="fil33" d="M645 422c3,-8 11,-20 16,-28 -13,-5 -30,-9 -37,5 -8,20 4,26 13,36l21 0c11,-17 13,-13 8,-35 -8,7 -6,7 -11,17 -4,8 -4,9 -10,14 -11,-10 -9,-5 -14,-18l14 9z"/>
  <path class="fil34" d="M736 263c11,-1 10,-7 22,19 -15,-2 -16,1 -28,-4l12 -5 -5 -9c0,0 -1,-1 -1,-1zm-34 21c13,-5 6,1 13,-13 8,-18 0,-8 11,-11l0 9c-2,6 -4,8 -6,17 15,1 63,10 42,-18 -1,0 -2,-1 -2,-2 13,-4 7,6 12,-6 -12,-7 -8,-2 -16,-2 -10,0 -4,-2 -15,-4 -6,0 -5,1 -7,1 -7,0 1,0 -9,-1 -6,-1 -9,-2 -17,-2l0 4c2,18 -1,12 -6,28z"/>
  <path class="fil35" d="M672 314c14,5 14,19 8,29 -7,13 -17,11 -34,9l14 -16c6,10 1,9 12,11 -8,-22 -11,-10 0,-33zm0 0c-7,2 -5,2 -12,8l-5 -4c-6,-5 1,-2 -7,-5 6,18 13,21 -7,34 -4,-10 -6,-18 -3,-31 14,-10 24,-13 34,-2zm-29 -10c-10,11 -20,22 -8,40 6,10 22,20 38,13 14,-6 21,-21 13,-38 -8,-17 -22,-19 -43,-15z"/>
  <polygon class="fil36" points="528,410 527,495 542,494 541,403 "/>
  <path class="fil37" d="M645 422l-14 -9c5,13 3,8 14,18 6,-5 6,-6 10,-14 5,-10 3,-10 11,-17 5,22 3,18 -8,35l-21 0c-9,-10 -21,-16 -13,-36 7,-14 24,-10 37,-5 -5,8 -13,20 -16,28zm-14 -37c-10,12 -20,16 -12,37 5,13 19,24 39,17 25,-8 29,-58 -27,-54z"/>
  <polygon class="fil38" points="758,696 761,664 723,661 724,695 "/>
  <path class="fil39" d="M464 166c29,-36 59,25 11,24 -8,-7 -12,-11 -11,-24zm8 36c1,-17 -1,-4 4,-9l12 0c4,4 2,-1 5,9 5,-13 16,-14 15,-32 -5,-46 -75,-16 -46,20 5,7 3,-1 10,12z"/>
  <path class="fil40" d="M790 720c16,-3 37,-4 54,-6 25,-2 42,-2 51,-7 -2,-14 4,-7 -9,-10 -3,2 -2,2 -7,3l-41 4c-17,1 -30,4 -48,4l0 12z"/>
  <path class="fil41" d="M1046 290l-13 28 0 2c1,4 -2,2 5,8 22,-3 5,-5 29,-19l0 -31c-16,4 -9,4 -21,12z"/>
  <path class="fil42" d="M464 166c-1,13 3,17 11,24 48,1 18,-60 -11,-24z"/>
  <path class="fil43" d="M527 497l15 1c-1,15 -4,16 2,30l-18 2 1 -33zm14 -94l1 91 -15 1 1 -85 -2 -1 0 123 18 -1c8,-16 -1,-105 3,-132 -8,0 -2,-4 -6,4z"/>
  <path class="fil35" d="M651 485c25,14 1,56 -26,34 -12,-6 -14,-21 -6,-31 5,-8 20,-14 32,-3zm-42 6c1,55 61,48 57,8l0 -7c-11,-6 -9,-17 -29,-19 -14,0 -20,9 -28,18z"/>
  <path class="fil44" d="M672 314c-11,23 -8,11 0,33 -11,-2 -6,-1 -12,-11l-14 16c17,2 27,4 34,-9 6,-10 6,-24 -8,-29z"/>
  <path class="fil45" d="M625 519l9 -19 -9 -15c9,4 6,4 13,10 5,-5 5,-7 13,-10 -12,-11 -27,-5 -32,3 -8,10 -6,25 6,31z"/>
  <path class="fil46" d="M625 519c27,22 51,-20 26,-34 -3,8 -3,8 -9,15l9 20c-11,-4 -6,-2 -13,-11 -9,7 -2,6 -13,10z"/>
  <path class="fil45" d="M672 314c-10,-11 -20,-8 -34,2 -3,13 -1,21 3,31 20,-13 13,-16 7,-34 8,3 1,0 7,5l5 4c7,-6 5,-6 12,-8z"/>
  <path class="fil28" d="M588 327l22 -2 7 -15c-4,-6 1,-1 -7,-4l-20 2 -2 19z"/>
  <polygon class="fil36" points="526,530 543,531 542,488 527,489 "/>
  <path class="fil47" d="M483 261c-2,7 -11,49 -4,58l10 0 -6 -58z"/>
  <path class="fil35" d="M625 519c11,-4 4,-3 13,-10 7,9 2,7 13,11l-9 -20c6,-7 6,-7 9,-15 -8,3 -8,5 -13,10 -7,-6 -4,-6 -13,-10l9 15 -9 19z"/>
  <path class="fil48" d="M1223 742c4,7 -7,8 11,6 9,-1 10,-6 11,-6l-16 3c3,-19 6,-14 9,-32 -9,5 -10,-7 -19,32 6,-3 7,0 4,-3z"/>
  <path class="fil34" d="M781 270c-1,2 -6,11 -7,11 -6,18 -1,7 2,11 13,-12 2,-13 17,-24 7,-5 3,2 6,-6l-24 -3c4,10 3,5 6,11z"/>
  <path class="fil49" d="M1072 481l4 1 3 -6 8 0c6,-5 3,-2 9,-3l7 -14 -19 1 -12 21z"/>
  <path class="fil50" d="M736 263c0,0 1,1 1,1l5 9 -12 5c12,5 13,2 28,4 -12,-26 -11,-20 -22,-19z"/>
  <path class="fil51" d="M472 202l0 7 20 -2 1 -5c-3,-10 -1,-5 -5,-9l-12 0c-5,5 -3,-8 -4,9z"/>
  <path class="fil52" d="M1184 541c5,8 2,6 5,19 1,1 1,2 1,3l0 -25 13 -2c-4,-5 -3,-4 -12,-4 0,0 -9,0 -9,0 -13,2 -4,1 -8,3 10,4 2,-2 10,6z"/>
  <path class="fil40" d="M758 696c5,1 6,0 11,-6l0 1c-1,-2 -2,0 -3,-9 -1,-3 0,-7 -1,-10 -1,-6 2,-9 -4,-8l-3 32z"/>
  <path class="fil51" d="M413 234c5,-6 6,-5 9,-12 -1,-5 0,-4 -3,-8 -10,5 -8,3 -14,12 4,6 3,5 8,8z"/>
  <polygon class="fil53" points="1124,580 1135,580 1136,565 1125,565 "/>
  <path class="fil54" d="M1033 320l0 -2c-9,-9 -7,-9 -21,-12 5,7 -1,2 9,9 3,1 8,4 12,5z"/>
  <path class="fil55" d="M350 559l-3 -8c-10,0 -4,-5 -8,6l11 2z"/>
  <polygon class="fil56" points="1076,482 1090,482 1087,476 1079,476 "/>
  <path class="fil40" d="M358 576c4,-2 13,-10 2,-5 -7,8 -2,5 -2,5z"/>
  <path class="fil53" d="M356 568c-3,-10 7,-2 -6,-9l6 9z"/>
  <path class="fil57 str0" d="M898 818c20,-4 89,-41 119,-46 0,0 65,-27 38,-35 -48,-13 -53,2 -113,2 -10,0 -31,-15 12,-29 27,-9 37,-56 -6,-35 -27,13 -93,20 -119,17"/>
  <polygon class="fil16" points="901,486 920,486 920,508 901,508 "/>
 </g>
</svg>
